/* XPM */
static char const * const absent16_xpm[] = {
"16 16 6 1 0 0",
"  c #000000",
"! c #F50000",
"# c #FF2323",
"$ c #555555",
"% c #FF6464",
"& c None",
"&%!!!!%&&&&&&&&$",
"!!!!!!!!&&&&&&&&",
"!!!!!!!!%&&&&&&$",
"%!!!!!!!!%&&&&&&",
"&%!!!&!!!!%&&&&$",
"&&%!&&&!!!!%&&&&",
"&&&&&&&&!!!!%&&$",
"&&&&&&&&&!!!!%&&",
"&&&&&&&&&&!!!!!!",
"&&&&&&&&&&&!!!!!",
"&&&&&&&&&&&!%!!!",
"&&&&&&&&&&!!!!!!",
"&&&&&&&&&&!!!!!!",
"&&&&&&&&&&%!!!##",
"&&&&&&&&&&&%!!!&",
"&&&&&&&&&&&&&%&&"
};
