/* XPM */
static char *absent48[] = {
"48 48 257 2 0 0",
"   c #000000",
"!  c #020202",
"#  c #050608",
"$  c #07080A",
"%  c #0A0B0B",
"&  c #0E0F11",
"'  c #111212",
"(  c #790413",
")  c #0E1113",
"*  c #990618",
"+  c #AB5B18",
",  c #84091A",
"-  c #171A1B",
".  c #191B1C",
"/  c #B0611D",
"0  c #1D1E20",
"1  c #7F1421",
"2  c #B35F21",
"3  c #720B22",
"4  c #1D2122",
"5  c #8A1323",
"6  c #212425",
"7  c #B46626",
"8  c #AF6327",
"9  c #232529",
":  c #98192B",
";  c #24292B",
"<  c #88232D",
"=  c #282D30",
">  c #272F31",
"?  c #AB1E32",
"@  c #9C1F32",
"A  c #992133",
"B  c #2D3234",
"C  c #323434",
"D  c #B06E35",
"E  c #AD6B36",
"F  c #C17536",
"G  c #A52437",
"H  c #2E3638",
"I  c #B0273A",
"J  c #90323A",
"K  c #BA753B",
"L  c #333A3C",
"M  c #3A3C3D",
"N  c #3F3D40",
"O  c #363E40",
"P  c #AE7041",
"Q  c #AD2B42",
"R  c #B32C43",
"S  c #394344",
"T  c #424646",
"U  c #983F47",
"V  c #974148",
"W  c #464749",
"X  c #3E4849",
"Y  c #494949",
"Z  c #CC844A",
"[  c #B7344B",
"\  c #434A4B",
"]  c #B7814E",
"^  c #D0874E",
"_  c #444E50",
"`  c #475150",
"a  c #AE7E50",
"b  c #BC3951",
"c  c #D28C51",
"d  c #525253",
"e  c #B78253",
"f  c #A04E54",
"g  c #C63B55",
"h  c #495355",
"i  c #B07C55",
"j  c #9D5156",
"k  c #D49357",
"l  c #4B5558",
"m  c #4D5959",
"n  c #515C5D",
"o  c #CE445E",
"p  c #535E60",
"q  c #B85361",
"r  c #CE4862",
"s  c #556062",
"t  c #A85F63",
"u  c #596364",
"v  c #D44A65",
"w  c #626365",
"x  c #DE9C66",
"y  c #5F6867",
"z  c #DFA168",
"{  c #5B6669",
"|  c #5D696B",
"}  c #5F7A6B",
"~  c #BC936B",
" ! c #E1A56C",
"!! c #616B6D",
"#! c #AD6C6D",
"$! c #DA516E",
"%! c #BF646F",
"&! c #D5A071",
"'! c #DD5672",
"(! c #696E72",
")! c #697273",
"*! c #637174",
"+! c #E7A975",
",! c #B47777",
"-! c #E45A78",
".! c #677578",
"/! c #DE6279",
"0! c #747579",
"1! c #687679",
"2! c #B99A7A",
"3! c #6A797B",
"4! c #737C7B",
"5! c #C09C7C",
"6! c #C6737D",
"7! c #ECB07D",
"8! c #EA607E",
"9! c #7F7D7E",
":! c #F1AF7F",
";! c #F1B57F",
"<! c #C67680",
"=! c #6E7D80",
">! c #707F82",
"?! c #7F8382",
"@! c #BD8583",
"A! c #B19683",
"B! c #ED6684",
"C! c #738284",
"D! c #ECB584",
"E! c #C0A685",
"F! c #F3B985",
"G! c #818286",
"H! c #F06C89",
"I! c #768389",
"J! c #A99E8B",
"K! c #F9C38B",
"L! c #7A878D",
"M! c #77898D",
"N! c #798B8D",
"O! c #F1728E",
"P! c #878B8E",
"Q! c #7C8D90",
"R! c #EF7892",
"S! c #C49592",
"T! c #F27893",
"U! c #8D9393",
"V! c #7E9094",
"W! c #839294",
"X! c #FBCB94",
"Y! c #959696",
"Z! c #829599",
"[! c #F5819A",
"\! c #86989B",
"]! c #88999C",
"^! c #FED19C",
"_! c #ECC99F",
"`! c #91C3A0",
"a! c #879AA1",
"b! c #8A9DA1",
"c! c #EECBA3",
"d! c #8DA0A4",
"e! c #FED6A6",
"f! c #90A3A7",
"g! c #A6A8A7",
"h! c #8FA2A8",
"i! c #92A5AA",
"j! c #95A9AD",
"k! c #98ADAE",
"l! c #96AAB0",
"m! c #A7B1B0",
"n! c #C2B0B1",
"o! c #B2B1B1",
"p! c #99ADB2",
"q! c #DEAEB5",
"r! c #9AB0B5",
"s! c #BAB4B5",
"t! c #FEDCB5",
"u! c #E0B1B7",
"v! c #AEB6B8",
"w! c #B8B8B8",
"x! c #9EB4B9",
"y! c #B7B7B9",
"z! c #A0B5BA",
"{! c #A8D3BC",
"|! c #A3B9BD",
"}! c #FEE0BD",
"~! c #A5BCC1",
" # c #C0C0C1",
"!# c #A8BDC2",
"## c #C9C1C2",
"$# c #A9C1C5",
"%# c #FEE5C8",
"&# c #ADC5C9",
"'# c #C2CACA",
"(# c #B0C6CB",
")# c #BFCBCB",
"*# c #AFC8CC",
"+# c #B1C9CE",
",# c #CDCBCE",
"-# c #CED0CF",
".# c #B4CCD1",
"/# c #C8CDD1",
"0# c #CBDAD3",
"1# c #B6D0D5",
"2# c #BAE1D5",
"3# c #B8D1D6",
"4# c #FEECD6",
"5# c #B8CFD7",
"6# c #BCD5DA",
"7# c #D3D9DB",
"8# c #CEE1DB",
"9# c #DADBDC",
":# c #E3E4DC",
";# c #FEF1DC",
"<# c #C0D9DE",
"=# c #BEDADE",
"># c #CFDFDE",
"?# c #D0E0DE",
"@# c #DEE0DF",
"A# c #E3E5E0",
"B# c #DEDFE1",
"C# c #C2DDE2",
"D# c #D2E1E2",
"E# c #DCE1E3",
"F# c #C5E1E5",
"G# c #FCEEE7",
"H# c #C6E2E8",
"I# c #E4E5E8",
"J# c #FEF4E8",
"K# c #D3EAE9",
"L# c #C9E5EA",
"M# c #DCEBEB",
"N# c #E5EBED",
"O# c #EAECED",
"P# c #CCE8EE",
"Q# c #CEEAF0",
"R# c #EBEDF0",
"S# c #F1EFF0",
"T# c #EBF0F1",
"U# c #F1F2F2",
"V# c #D1EEF4",
"W# c #FEF9F4",
"X# c #D3F1F6",
"Y# c #DCF4F6",
"Z# c #E2F4F6",
"[# c #F3FCF7",
"\# c #D5F2F8",
"]# c #DAF3F8",
"^# c #E3F6FA",
"_# c #E8F6FB",
"`# c #E5F8FB",
"a# c #ECF9FB",
"b# c #F3FBFD",
"c# c #FDFEFE",
"d# c #FFFFFF",
"e# c None",
"\#X#X#X#X#X#X#X#X#V#V#V#V#V#V#V#V#V#V#V#V#V#V#V#V#X#X#X#X#X#X#X#\#\#\#\#\#\#\#\#\#\#\#\#\#\#\#\#",
"X#X#X#V#V#V#Q#Q#Q#Q#Q#P#P#P#P#P#P#P#P#P#P#P#Q#Q#Q#Q#Q#V#V#V#X#X#X#X#\#\#\#\#\#\#\#\#\#\#\#\#\#\#",
"V#V#V#Q#Q#P#P#L#L#H#H#F#F#F#F#F#F#F#F#F#F#H#H#H#L#L#L#P#P#Q#V#V#V#X#X#\#\#\#\#\#\#\#\#\#\#\#\#\#",
"V#Q#P#L#H#F#C#<#<#=#6#6#6#6#6#6#6#6#6#6#6#6#6#=#=#=#C#F#H#L#Q#Q#V#V#X#X#\#\#\#\#\#\#\#\#\#\#\#\#",
"Q#P#H#F#C#6#3#1#.#.#+#+#+#+#*#+#*#*#(#(#&#*#(#+#.#1#3#6#<#C#L#P#Q#V#V#X#X#\#\#\#\#\#\#\#\#\#\#\#",
"L#H#C#=#3#.#(#$#$#!#~!~!~!~!|!|!|!|!|!z!z!z!|!|!~!$#&#+#3#6#C#H#L#Q#V#V#X#\#\#\#\#\#\#\#\#\#\#\#",
"H#C#6#.#&#!#|!x!r!p!l!l!l!l!l!j!i!i!i!h!h!h!h!i!l!r!z!~!&#.#6#C#H#P#Q#V#X#\#\#\#\#\#\#\#\#\#\#\#",
"C#6#.#$#|!r!j!\!l .                                       6 !!+#C#H#P#V#X#X#\#\#\#\#\#\#\#\#\#\#",
"=#.#$#z!l!d!n # 0!)#a#a#a#a#a#a#a#a#b#a#a#a#a#a#_#_#^#Y#]#(#)!# C!C#L#Q#V#X#\#\#\#\#\#\#\#\#\#\#",
"3#&#z!l!]!>!$ '#b#b#b#b#a#a#b#b#b#b#b#b#b#b#b#b#b#a#_#^#Y#]#\#$#$ &#H#Q#V#X#\#\#\#\#\#\#\#\#\#\#",
".#~!p!b!Q!O G!b#b#b#b#b#b#b#b#b#7#U#9#c#c#c#c#b#b#b#a#_#^#]#\#\#=!{ F#P#V#X#\#\#\#\#\#\#\#\#\#\#",
"&#z!i!Z!C!) 7#b#b#b#a#a#b#b#T#d C @#$ @#c#c#c#c#c#b#b#a#^#Y#\#\#5#0 C#P#Q#X#\#\#\#\#\#\#\#\#\#\#",
"$#r!b!N!3!$ R#b#b#a#a#a#a#M#M 6 0 [#  -#d#d#d#d#c#c#b#a#_#Y#]#\#L#% =#L#Q#X#\#X#\#\#\#\#\#\#\#\#",
"!#l!\!I!.!# O#b#a#a#`#_#>#9 ; \ # c#'  #d#d#d#d#c#b#b#a#^#^#]#\#H#% <#L#Q#X#\#\#\#\#\#\#\#\#\#\#",
"~!i!Z!>!*!# N#a#a#_#_#`#(!= ` X # I#9 o!d#d#d#c#c#c#b#a#`#Z#]#\#L#% 6#H#Q#X#\#\#\#\#\#\#\#\#\#\#",
"|!f!V!=!| # N#a#_#`#^#`#y B _ T % ,#T w!d#d#c#d#c#c#b#a#^#^#]#\#H#% =#H#Q#X#\#\#\#X#\#\#\#\#\#\#",
"z!h!Q!3!| # N#a#`#^#^#_#y B _ 4 6 @#d#d#d#d#d#d#c#b#b#a#`#^#]#D#E!e ] 5!0#V#\#\#X#\#\#\#\#\#\#\#",
"z!d!Q!3!| # N#a#`#^#`#a#4!= X . U#d#d#c#d#d#d#d#c#c#b#b#`#]#] + + K K + + ] K#\#\#\#\#\#\#\#\#\#",
"x!d!N!3!{ # N#a#`#`#`#a#U!6 h % 9#d#d#d#d#d#d#d#c#c#b#a#M#8 + &!}!4#4#%#&!8 7 K#\#\#X#\#\#\#\#\#",
"x!d!N!1!{ # N#a#_#`#`#_#v!- h 6 9!d#d#d#c#d#d#d#c#c#b#a#7 2 _!%#4#J#J#;#4#c!2 7 X#\#\#\#\#\#\#\#",
"z!d!N!1!{ # N#a#_#`#`#`#E#$ l S 4 d#d#d#d#d#c#d#c#c#b#~ + D!%#4#;#J#W#J#4#%#_!+ ] \#\#\#\#\#\#\#",
"z!d!N!.!u # R#b#a#`#`#`#a#0 \ _ &  #d#d#d#d#c#d#c#c#a#+ ^ t!%#4#J#W#W#J#;#%#}!k + K#\#\#\#\#\#\#",
"z!d!N!.!u # R#b#a#`#^#`#a#w H h ; w d#d#d#c#d#d#c#c#5!+ X!t!%#4#;#W#W#J#4#%#t!X!+ ~ \#\#\#\#\#\#",
"x!b!M!*!s ! R#b#a#_#`#^#_#m!- l X & [#d#c#d#d#d#c#c#D F e!t!}!%#;#J#J#;#4#%#t!e!Z D \#\#\#\#\#\#",
"x!d!M!*!p ! R#b#a#_#`#`#`#_#) h h - g!c#d#d#d#c#c#c#+ k ^!e!}!%#4#4#;#4#%#}!t!e!k + X#\#\#\#\#\#",
"x!d!M!*!p # R#b#b#a#`#^#`#_#)!B m L Y c#c#c#c#d#c#A#+  !^!e!t!}!%#%#%#%#%#t!e!^! !+ ?#\#\#\#\#\#",
"z!d!M!*!n # R#c#b#b#_#`#^#_#D## n h ! I#c#c#U#O#c#:#+ +!X!^!e!t!}!}!}!}!t!e!e!X!+!+ 8#\#\#\#\#\#",
"z!d!M!*!n ! S#c#b#b#a#_#`#^#`#s = m 9 P!N#N#Y M b#A#+ z K!X!e!e!t!t!t!t!e!e!^!X! !+ ?#\#\#\#\#\#",
"|!f!Q!*!p ! S#c#c#b#b#_#`#^#^#D#) _ \ ' ! M 7#% U!b#+ ^ K!X!^!^!e!e!e!e!^!^!X!K!c + \#\#\#\#\#\#",
"|!i!V!3!u ! S#c#c#b#b#a#_#`#`#^#W!; p _ _ - U!d!% B#D F F!K!X!X!^!^!^!^!X!X!K!K!F D \#\#\#\#\#\#",
"!#l!Z!=!{ # S#c#c#c#b#b#_#`#^#`#`#T > n h O % B#d W 5!+ +!F!K!K!X!X!X!X!K!K!F!7!+ ~ \#\#\#\#\#\#",
"$#r!b!I!*!# S#d#c#c#c#b#b#a#_#_#`#M#6 L M S ; Y N#Y!T#+ Z D!F!F!K!K!K!K!F!F!;!Z + >#\#\#X#\#\#X#",
"&#z!f!Q!3!& 9#c#c#c#b#b#b#a#a#a#a#a#/#w d C C N N#[#b#] + x :!;!;!F!F!;!;!D!x + ] X#\#\#\#\#\#\#",
".#~!l!a!L!L ?!c#c#c#c#b#b#b#a#a#a#a#b#b#b#b#c#c#b#b#a#Z#+ / x 7!7!7!7!7!7!x 2 + V#\#X#\#\#\#\#\#",
"1#&#z!i!Z!3!$ '#b#b#b#b#b#b#a#b#a#a#b#b#b#b#b#b#b#Z##!1 3 + / ^  !+!+! !^ / + 3 < ,!\#\#\#\#\#\#",
"6#.#$#x!i!\!m # 4!'#a#b#a#a#a#a#a#a#a#a#a#a#a#a##!( ( ( A J!E + + D 7 + + E J!5 , ( 1 ,!\#\#\#X#",
"C#6#.#$#z!l!h!V!_ .                         } 1 ( @ '!R * ##o!A!a P P i A!o!n!* b v 5 ( J \#\#\#",
"H#C#6#.#&#~!z!r!l!i!i!i!i!i!j!l!k!p!p!k!p!`!( , v H!H!'!* <!9#y!o!o!o!o!s!9#q * B!H!B!b ( 1 \#\#",
"L#H#C#6#1#+#&#$#~!~!|!|!|!|!|!|!~!~!~!~!$#1 5 -!8!H!O!T!R * 6!d#O#9#9#O#G#%!* b T!O!H!B!r ( J \#",
"Q#P#L#F#=#6#3#1#.#+#*#*#*#*#*#*#+#+#+#+#j ( r 8!8!H!O!T!R!I * G 6!q!u!6!: * [ [!T!O!H!8!8![ ( S!",
"V#Q#P#P#H#F#C#C#<#=#6#6#6#6#6#6#6#6#6#6#( @ '!-!8!H!H!O!T![!$!? * * * * I '![!T!O!H!B!8!-!'!, U ",
"V#V#V#Q#Q#P#L#L#H#H#H#F#F#F#F#F#F#F#F#S!( g $!-!-!8!B!H!O!T![![!R!/!/![![![!T!O!H!B!8!-!'!$!G ( ",
"X#X#X#V#V#V#Q#Q#Q#Q#P#Q#Q#P#P#P#P#Q#Q#f , r v $!'!-!8!B!B!H!H!O!O!O!O!O!H!H!H!B!B!8!-!'!$!v b ( ",
"\#\#\#X#X#X#X#X#X#V#V#V#V#V#V#V#V#V#V#< 5 o o v v R v -!-!8!8!8!B!B!B!B!B!8!8!-!-!v R v v r o , ",
"\#\#\#\#\#\#\#\#\#\#\#\#\#\#\#\#\#\#\#( @ b g g b ( Q $!$!$!'!'!-!-!'!'!'!'!$!$!v R ( b o g b 5 ",
"\#\#\#\#\#\#\#\#\#\#\#\#\#\#\#\#\#\#\#< , : @ Q G ( [ o o r v v v v v v v v r o o R ( G Q @ : ( ",
"\#\#\#\#\#\#\#\#\#\#\#\#\#\#\#\#\#\#\#{!U ( ( ( ( ( ( ( ( ( ( 5 5 5 5 5 5 5 , ( ( ( ( ( ( ( ( V ",
"\#\#\#\#\#\#\#\#\#\#\#\#\#\#\#\#\#\#\#\#\#\#V#2#2#@!,!,!,!,!#!V V V V V V U t ,!,!,!,!{!2#V#\#\#"
};
