/* XPM */
static char const * const busy48_xpm[] = {
"48 48 255 2",
"  	c None",
". 	c #D9F2F6",
"+ 	c #D7EFF4",
"@ 	c #D4F5F9",
"# 	c #D5F1FC",
"$ 	c #D5EEF3",
"% 	c #C4E5E8",
"& 	c #B6D7DA",
"* 	c #C8E0E5",
"= 	c #CDE6EA",
"- 	c #C4DCE1",
"; 	c #BFD8DC",
"> 	c #BCD5D9",
", 	c #B7D0D4",
"' 	c #CCEBEB",
") 	c #D2F3F6",
"! 	c #D2EBEF",
"~ 	c #AEC6CB",
"{ 	c #B2CBCF",
"] 	c #AAC2C6",
"^ 	c #A5BDC2",
"/ 	c #A1B2B9",
"( 	c #A2BABF",
"_ 	c #D0E9ED",
": 	c #CAE3E7",
"< 	c #99A8AF",
"[ 	c #95ACB0",
"} 	c #8FA7AB",
"| 	c #94A4AA",
"1 	c #8AA2A6",
"2 	c #9BB2B7",
"3 	c #8B999D",
"4 	c #4B5259",
"5 	c #1B1C1A",
"6 	c #00070A",
"7 	c #030501",
"8 	c #060208",
"9 	c #1F2223",
"0 	c #637072",
"a 	c #505C5C",
"b 	c #777579",
"c 	c #BCCACD",
"d 	c #E6F7FE",
"e 	c #EDFBFB",
"f 	c #EAF8F8",
"g 	c #EEF2F5",
"h 	c #F5FBFD",
"i 	c #E4F5FC",
"j 	c #DCF5FA",
"k 	c #758285",
"l 	c #9EB6BB",
"m 	c #0A0F12",
"n 	c #BEC1BD",
"o 	c #EEF7FF",
"p 	c #F0FEFE",
"q 	c #E3F8F7",
"r 	c #849A9E",
"s 	c #79888E",
"t 	c #373B3D",
"u 	c #F9FEFF",
"v 	c #FFFDFF",
"w 	c #F7FDFF",
"x 	c #D5DADC",
"y 	c #FFFAF8",
"z 	c #F8FCF8",
"A 	c #5A6566",
"B 	c #DDD9DC",
"C 	c #545256",
"D 	c #303234",
"E 	c #E3E0E5",
"F 	c #070905",
"G 	c #717D7E",
"H 	c #F1F2EF",
"I 	c #E7ECEF",
"J 	c #383A37",
"K 	c #242728",
"L 	c #FDFFFC",
"M 	c #687474",
"N 	c #484A47",
"O 	c #C4C1C2",
"P 	c #657877",
"Q 	c #6A6E71",
"R 	c #282D2F",
"S 	c #455051",
"T 	c #414C4D",
"U 	c #EBEBE8",
"V 	c #B7B2B0",
"W 	c #849091",
"X 	c #67767B",
"Y 	c #DCE9EA",
"Z 	c #5D6969",
"` 	c #CDCBCF",
" .	c #434647",
"..	c #B4B3B7",
"+.	c #7C8F8E",
"@.	c #D4E1E2",
"#.	c #BF9F7D",
"$.	c #B67F52",
"%.	c #CDDED8",
"&.	c #646266",
"*.	c #181A1C",
"=.	c #B6824C",
"-.	c #B05A1A",
";.	c #AB5C18",
">.	c #BC763B",
",.	c #7C9297",
"'.	c #060000",
").	c #4A5555",
"!.	c #DADCD9",
"~.	c #B16326",
"{.	c #B2621E",
"].	c #D8A16E",
"^.	c #FDE3C6",
"/.	c #FFE8D1",
"(.	c #FDEFDC",
"_.	c #D9EEED",
":.	c #837F80",
"<.	c #EFCAA4",
"[.	c #FEF4E6",
"}.	c #FDEDD4",
"|.	c #3A4546",
"1.	c #BD9065",
"2.	c #F5C696",
"3.	c #FEF6EE",
"4.	c #FFEDE2",
"5.	c #FFE8CA",
"6.	c #F1C79C",
"7.	c #464B4D",
"8.	c #CF9358",
"9.	c #FDDFB6",
"0.	c #FEE2BF",
"a.	c #EBE9ED",
"b.	c #303B3B",
"c.	c #636562",
"d.	c #FFDBB4",
"e.	c #788B8A",
"f.	c #555F60",
"g.	c #A5B1B2",
"h.	c #B26D33",
"i.	c #C17636",
"j.	c #FDD5A2",
"k.	c #FFD8AC",
"l.	c #CD8648",
"m.	c #AF6E3A",
"n.	c #738A8E",
"o.	c #A2A4A1",
"p.	c #D69153",
"q.	c #FDD29A",
"r.	c #B05A10",
"s.	c #E0E2DF",
"t.	c #E0A266",
"u.	c #FFCE98",
"v.	c #FFD2A1",
"w.	c #E6AA6D",
"x.	c #D1DEDF",
"y.	c #DBE1E3",
"z.	c #E4E3DA",
"A.	c #A55C15",
"B.	c #8A8F91",
"C.	c #3D3B3E",
"D.	c #FBC88D",
"E.	c #E6A473",
"F.	c #0C0F0B",
"G.	c #929491",
"H.	c #FAC28F",
"I.	c #F7BF85",
"J.	c #B9692A",
"K.	c #FABC8B",
"L.	c #515350",
"M.	c #E6A975",
"N.	c #F3BD8B",
"O.	c #F0B57D",
"P.	c #EEB281",
"Q.	c #F7B982",
"R.	c #DD9B68",
"S.	c #B18050",
"T.	c #818380",
"U.	c #F0AD7E",
"V.	c #F8F8EA",
"W.	c #6D6CB0",
"X.	c #1F1281",
"Y.	c #200773",
"Z.	c #D1834C",
"`.	c #302491",
" +	c #7676B7",
".+	c #F9F5D4",
"++	c #FEF7E6",
"@+	c #140679",
"#+	c #AA9D8C",
"$+	c #190483",
"%+	c #F4EFD7",
"&+	c #5E7A6B",
"*+	c #351F9F",
"=+	c #6F56D9",
"-+	c #3F29BA",
";+	c #1A0699",
">+	c #B3957F",
",+	c #C3AFB2",
"'+	c #543BC0",
")+	c #644BD0",
"!+	c #281193",
"~+	c #393390",
"{+	c #90C39C",
"]+	c #0E0479",
"^+	c #8C6BF1",
"/+	c #795CE1",
"(+	c #7E74C7",
"_+	c #B85363",
":+	c #7960DE",
"<+	c #9073F1",
"[+	c #FCF1D5",
"}+	c #250C90",
"|+	c #7D5CEA",
"1+	c #856DED",
"2+	c #937AF2",
"3+	c #FCFFFD",
"4+	c #DCDAD5",
"5+	c #E8EBEB",
"6+	c #F8FAFF",
"7+	c #6E65BE",
"8+	c #14069A",
"9+	c #5337C5",
"0+	c #8367EE",
"a+	c #54509E",
"b+	c #7054E2",
"c+	c #8161EF",
"d+	c #3828AC",
"e+	c #301D9F",
"f+	c #B4AFE2",
"g+	c #29149F",
"h+	c #997FF8",
"i+	c #4930B6",
"j+	c #9395C2",
"k+	c #D9D5BC",
"l+	c #7756E3",
"m+	c #9983F4",
"n+	c #311AAD",
"o+	c #7251DD",
"p+	c #473E9B",
"q+	c #3F29AD",
"r+	c #6547D4",
"s+	c #6C50DE",
"t+	c #27188F",
"u+	c #5A40CE",
"v+	c #684BD8",
"w+	c #6245CF",
"x+	c #2D2488",
"y+	c #790614",
"z+	c #BBD3A9",
"A+	c #484198",
"B+	c #25158D",
"C+	c #F6F3D2",
"D+	c #D6E2B8",
"E+	c #8185C0",
"F+	c #625EA9",
". + + + + + + + + + + + + + + + + + + + + + + + + + + + + + + + . . . . . . . . . . . . . . . . ",
"@ @ @ @ # $ $ $ $ % $ % % % % % % % % % % % % $ % $ $ $ $ @ @ @ @ @ @ @ @ @ @ @ @ @ @ @ @ @ @ @ ",
"# # % $ % # & % # & * * * = * * * = * # * # & # & % % % # * # # # # # # # # # # # # # # # # # . ",
"$ % # % % % - ; - - - & & - & & & > & , , , > - - - - * % % % = % $ ' ) ) ) ) ) ) ) ) ) ) ) @ @ ",
"! = * - - & > & ~ ~ ~ ~ ~ ~ ~ { ~ ~ ~ ~ ~ ~ ~ ~ ~ & , > - - % # % # # # # # # # # # # # # # # . ",
"= % & - , ~ ~ ] ^ ] ^ ] / ^ ^ / ^ / / / / / ( / ^ ^ ~ ~ , > - * _ = _ ! + . . . . . . . + ) ) @ ",
": * > ~ ~ ^ ( / / < < < / < < < < [ [ } } | 1 < < 2 / ^ ~ { > - % $ $ $ @ @ @ @ @ @ @ @ # # # . ",
"- > ~ ~ / / | 3 4 5 6 7 8 8 6 6 6 8 8 8 8 6 8 6 8 8 6 8 8 9 0 ~ - % % % # # # # # # # # . . ) @ ",
"; , ~ / [ 1 a 6 b c d e f g h e e e e e e e e d f i i j # c 0 8 k * # % ' ) ) ) ) ) ) ) @ # # . ",
", ] l < 3 k m n e e h o d p e e h h h h h h h p o h f i q # # ] 6 ] * # # # # # # # # # # . ) @ ",
"{ ^ 2 r s t s u v p p h o h w h x g x w v w y z h e f i q j @ # k A - = _ + . . . ) . ) @ # # . ",
"{ / 1 3 k m B h h h e e p p g C D E F B w w u w w h e f i q ) j ~ 9 % % $ ) ) ) ) . @ # # . ) @ ",
"] / r s G 7 H e e o e e d I J K 5 v 7 x y L y v v v h f i j # # % F - % # # # # # # . ) @ # # . ",
"^ [ r k M 8 I w f f q d x K K N 6 L m O L L L L w w p d i q q . : 8 - * ' + . . ) ) ) # # . ) @ ",
"/ < r k P 6 I e d o g f Q R S T 8 U K V v v L y w v L f d . j @ * m - * % @ @ # # # . ) @ # # . ",
"( } W X A F Y d e j j j Z D S N F `  ...L w L L y w h h d i @ # % 6 & % # # # ) . ) ) # # . ) @ ",
"l 1 +.X 0 F g f f f f i Z D T 9 9 B L u y y L L w w p e i i @ @.#.$.$.#.%.' . ) + # + ) @ # # . ",
"/ | s P &.6 Y d d d d f G R T *.H L v L L L v L y w L e d . =.-.;.>.>.-.-.$.' # @ . ) # # . ) @ ",
"2 1 ,.X Z '.g e j d d f W 9 ).8 !.L v L L L L L y w h e Y ~.{.].^./.(.^.].{.~.! . # _.) @ # # . ",
"2 | W P &.F I e f q f d ..*.).K :.L L L L L v L u v p h {.{.<./.(.[.[.(.}.<.-.{.) # @ # # . ) @ ",
"2 r ,.X A 7 I h d j e d @.6 ).|.9 L L y L L L L w v h 1.;.2.^./.[.3.3.4.(.5.6.-.=.@ ) ) @ # # . ",
"l 1 W P A 7 I e e d d q h 9 T 7.m n L L L L v L L h f -.8.9.^./.4.y L 3.}./.0.8.-._ . # # . ) @ ",
"/ 1 s 0 A 6 a.w e q d j e &.b.C R c.v v L L L L y w #.-.2.d.^.(.(.[.3.3.}.5.0.2.;.1.) ) @ # # . ",
"2 3 e.X f.'.g e e o f f d g.*.).|.m H L L y v L u w h.i.j.d.0./.}.[.[.4.}.^.d.k.l.m.# # # . ) @ ",
"l 3 n.0 f.6 a.h e d d f j i m C ).*.o.u u w L L y z ;.p.j.k.9.^.}.(.}./.5.0.k.q.8.r._.) @ # # . ",
"/ 1 s X f.7 H w e e d j d o M b.).t 7.L L y L L u s.-.t.u.j.d.0.^./././.^.9.k.v.w.;.@.# # . ) @ ",
"/ 1 n.0 a 6 a.v w e e f i f x.6 4 C 6 y.L w H a.v z.;.t.u.u.k.d.9.0.9.9.d.d.j.u.w.A.%.) @ # # . ",
"l | s X 4 '.a.w p h f d q i f &.R a 9 B.I U C C.h s.r.t.D.u.v.k.d.d.d.d.k.v.q.D.E.{.%.# # . ) @ ",
"l 1 n.P f.F y v p h h o q j q @.m 7. .F.8 J !.'.G.w ;.p.H.D.u.q.j.k.k.j.j.q.D.I.p.-.@ ) @ # # . ",
"g.| ,.X A 6 g L L o h d d d d j W R f.4 T *.B.o.m y.m.J.I.H.D.u.u.v.v.q.D.D.H.K.>.h.. # # . ) @ ",
"^ < 3 X Z 7 g L y w w h h q f d j  .R f.).t '.B L. .#.-.M.H.I.H.D.D.D.u.D.D.N.O.;.1.@ ) @ # # . ",
"] g.r s 0 8 U v L L L h e e d f e Y 9 b.J T R N a.G.H ;.l.P.K.I.H.K.H.I.N.N.Q.l.-.@._.+ ) ) + @ ",
"] l 1 +.P m B v w v L o h e e f d e ` &.L.D D t a.p h $.-.R.P.O.O.Q.Q.Q.O.P.t.;.S.@ ) # # @ @ + ",
", / < 3 s t T.w L w h v w h o d p o d o p h z y w p d q A.;.R.P.P.P.P.P.U.R.-.A.+ ) # + + @ # @ ",
"> { / < r X 8 c z w e h h p e e q w p p o h p h h V.W.X.Y.A.;.Z.].M.E.].Z.~.A.Y.`. +.+) # ) # ) ",
"> { ] / } 3 a '.G c w d d h h e e e e h h o e ++W.@+@+@+`.#+h.;.-.J.J.-.;.h.#+$+$+@+X. +%++ ) . ",
"% > { ] ( [ | ,.7.*.'.7 6 6 8 8 6 8 6 8 8 8 &+X.@+*+=+-+;+O ..>+S.m.$.$.>+..,+;+'+)+!+@+~+%+@ # ",
"- % & c { / l g.[ [ [ | } } [ [ [ 2 [ [ < {+]+X.)+^+^+/+;+(+x ....g.V ....!._+;+:+<+^+'+@+X.[+.+",
": * & & & c ~ ] ( / ( / / / ^ ^ g.] ] ^ ] X.}+/+|+^+1+2+-+;+(+3+a.x 4+5+6+7+8+9+2+<+0+0+)+]+~+.+",
"# % = x.; , & , , { { { { { ~ { { ~ ~ { a+@+)+b+c+0+<+2+2+d+;+e+(+f+f+(+g+8+'+h+<+2+^+|+/+i+]+j+",
"# # % = % - % ; ; ; ; > > > , & > ; & k+@+*+l+/+0+^+<+<+<+m+=+n+;+;+;+;+d+:+m+2+^+1+^+|+/+o+$+p+",
"_ ' # # # = : : % * * % % : : * * * * j+]+'+=+b+l+0+^+^+<+m+m+m+2+:+:+m+m+m+2+<+<+^+|+/+/+o+q+@+",
"# + + _ # # $ # # % = = _ _ # % ' # _ a+$+r+=+=+o+/+/+0+^+^+^+^+2+<+^+<+^+^+^+0+0+/+l+s+s+r+'+]+",
"+ @ @ # ' ) $ ! ) # # # # $ ' # # ' # `.t+u+u+r+v+i+r+l+/+/+0+0+c+/+0+^+0+/+/+l+l+)+i+v+w+)+u+$+",
"# # ) # # @ @ + ) ) ) ) @ # + ) # # @ @+*+9+9+u+i+@+i+r+s+s+o+/+l+l+b+o+b+b+=+=+o+q+@+'+9+9+9+}+",
") ) # @ ) # # @ # + # # # @ @ # . ) # x+$+*+*+q+e+]+q+w+)+)+)+r+)+)+r+)+v+v+u+w+u+i+@+*+-+e+!+y+",
"# ) . + ) ) # . @ ) ) ) # # + @ + ) # z+A+]+@+@+@+@+]+]+@+@+]+!+!+B+}+B+B+!+$+]+@+@+]+@+@+@+]+A+",
") + # # # # ) ) # # + # ) ) ) # @ # ) ) ) @ C+D+D+E+ + + + +W.A+A+A+A+A+A+A+F+ + + + +z+D+C+[+.+"};
