/* XPM */
static char const * const busy16_xpm[] = {
"16 16 14 1 0 0",
"  c #000000",
"! c #330000",
"# c #424242",
"$ c #555555",
"% c #777777",
"& c #A0A0A4",
"' c #0000CC",
"( c #0099CC",
") c #99CCCC",
"* c #CCCCCC",
"+ c #4F8AD6",
", c #3A38EE",
"- c #452AFC",
". c None",
".---++%........$",
"-+(-+,!,........",
"++++++,',......$",
"*-++++++',......",
".&++#.+++',....$",
"..*+...+++',....",
"........+++',..$",
".........++'',..",
"..........+#'',,",
"...........++'',",
"...........+)+++",
"..........++++++",
"..........#+++--",
"..........-+++'*",
"...........-++-.",
".............-.."
};
