/* XPM */
static char const * const present48_xpm[] = {
"48 48 249 2",
"  	c None",
". 	c #D9F2F6",
"+ 	c #D7EFF4",
"@ 	c #CDF2FB",
"# 	c #C4E5E8",
"$ 	c #C0DDE7",
"% 	c #D2EBEF",
"& 	c #D0E9ED",
"* 	c #CDE6EA",
"= 	c #CAE3E7",
"- 	c #C8E0E5",
"; 	c #D5F1FC",
"> 	c #C4DCE1",
", 	c #BCD5D9",
"' 	c #BFD8DC",
") 	c #B6D7DA",
"! 	c #D2F3F6",
"~ 	c #CCEBEB",
"{ 	c #B7D0D4",
"] 	c #B2CBCF",
"^ 	c #AEC6CB",
"/ 	c #BCCACD",
"( 	c #D4F5F9",
"_ 	c #AAC2C6",
": 	c #A1B2B9",
"< 	c #A5BDC2",
"[ 	c #A5B1B2",
"} 	c #A2BABF",
"| 	c #9EB6BB",
"1 	c #9BB2B7",
"2 	c #95ACB0",
"3 	c #99A8AF",
"4 	c #94A4AA",
"5 	c #8AA2A6",
"6 	c #7C8F8E",
"7 	c #4B5259",
"8 	c #181A1C",
"9 	c #060000",
"0 	c #060208",
"a 	c #030501",
"b 	c #00070A",
"c 	c #1F2223",
"d 	c #6A6E71",
"e 	c #8FA7AB",
"f 	c #0C0F0B",
"g 	c #777579",
"h 	c #EDFBFB",
"i 	c #E6F7FE",
"j 	c #EAF8F8",
"k 	c #E4F5FC",
"l 	c #DCF5FA",
"m 	c #637072",
"n 	c #758285",
"o 	c #6C7F7E",
"p 	c #070905",
"q 	c #C7CBCE",
"r 	c #F0FEFE",
"s 	c #EEF7FF",
"t 	c #F5FBFD",
"u 	c #F7FDFF",
"v 	c #FFFDFF",
"w 	c #849A9E",
"x 	c #849091",
"y 	c #3A4546",
"z 	c #837F80",
"A 	c #D5DADC",
"B 	c #EEF2F5",
"C 	c #DBE1E3",
"D 	c #FDFFFC",
"E 	c #F8FCF8",
"F 	c #717D7E",
"G 	c #646266",
"H 	c #8B999D",
"I 	c #0A0F12",
"J 	c #FFFAF8",
"K 	c #545256",
"L 	c #303234",
"M 	c #E0E2DF",
"N 	c #DDD9DC",
"O 	c #F9FEFF",
"P 	c #79888E",
"Q 	c #67767B",
"R 	c #DCE9EA",
"S 	c #383A37",
"T 	c #242728",
"U 	c #CED0CC",
"V 	c #DEF1FA",
"W 	c #687474",
"X 	c #E7ECEF",
"Y 	c #E3F8F7",
"Z 	c #484A47",
"` 	c #C0C0C0",
" .	c #7C9297",
"..	c #657877",
"+.	c #282D2F",
"@.	c #4A5555",
"#.	c #414C4D",
"$.	c #EDE9EC",
"%.	c #B6B0AF",
"&.	c #D4E1E2",
"*.	c #5D6969",
"=.	c #434647",
"-.	c #B0B5B7",
";.	c #E3E0E5",
">.	c #BEA181",
",.	c #B18050",
"'.	c #B67F52",
").	c #CDDED8",
"!.	c #D9EEED",
"~.	c #6C7879",
"{.	c #F1F2EF",
"].	c #B6824C",
"^.	c #B05A1A",
"/.	c #AB5C18",
"(.	c #C17636",
"_.	c #BC763B",
":.	c #788B8A",
"<.	c #B16326",
"[.	c #D8A16E",
"}.	c #FFE8D1",
"|.	c #FDEDD4",
"1.	c #FDE3C6",
"2.	c #B2621E",
"3.	c #5A6566",
"4.	c #818380",
"5.	c #F0C89F",
"6.	c #FEF4E6",
"7.	c #FDEFDC",
"8.	c #505C5C",
"9.	c #373B3D",
"0.	c #BD8F63",
"a.	c #F2C393",
"b.	c #FEE2BF",
"c.	c #FEF6EE",
"d.	c #FFE8CA",
"e.	c #D1894C",
"f.	c #FDDFB6",
"g.	c #FFEAD9",
"h.	c #FFEDE2",
"i.	c #D39153",
"j.	c #B05A10",
"k.	c #555F60",
"l.	c #636562",
"m.	c #BF9A74",
"n.	c #FFDBB4",
"o.	c #AF6B37",
"p.	c #FDD5A2",
"q.	c #FFD8AC",
"r.	c #C8803E",
"s.	c #B36D32",
"t.	c #A6A8A5",
"u.	c #738A8E",
"v.	c #464B4D",
"w.	c #E6AA6D",
"x.	c #FFCE98",
"y.	c #E5A874",
"z.	c #D1DEDF",
"A.	c #E4E3DA",
"B.	c #FCCA8E",
"C.	c #8A8F91",
"D.	c #DD9B67",
"E.	c #FFD2A1",
"F.	c #FDD29A",
"G.	c #A55C15",
"H.	c #121411",
"I.	c #929491",
"J.	c #F8BF86",
"K.	c #F5BE8B",
"L.	c #9EA09D",
"M.	c #FABC8B",
"N.	c #515350",
"O.	c #EEB07A",
"P.	c #303B3B",
"Q.	c #EEB281",
"R.	c #F9C78B",
"S.	c #EFB77E",
"T.	c #DADCD9",
"U.	c #3D3B3E",
"V.	c #F0AD7E",
"W.	c #F7B982",
"X.	c #E0A266",
"Y.	c #6FB072",
"Z.	c #248114",
"`.	c #357305",
" +	c #D1834C",
".+	c #E4A16F",
"++	c #2F871E",
"@+	c #77B480",
"#+	c #147A00",
"$+	c #0E7909",
"%+	c #1D7F02",
"&+	c #38912B",
"*+	c #AA9D8C",
"=+	c #AF713A",
"-+	c #2B910F",
";+	c #24840A",
">+	c #71B681",
",+	c #5E7A6B",
"'+	c #41991C",
")+	c #86D84C",
"!+	c #62BF31",
"~+	c #1B9A09",
"{+	c #C3CABF",
"]+	c #B3957F",
"^+	c #AD713F",
"/+	c #B2B6B2",
"(+	c #B0C3AF",
"_+	c #7CCF49",
":+	c #348E0C",
"<+	c #47993D",
"[+	c #91C49D",
"}+	c #A4F06B",
"|+	c #A4F274",
"1+	c #8ADD50",
"2+	c #80C776",
"3+	c #B5B3B7",
"4+	c #6BBC5A",
"5+	c #ACF275",
"6+	c #65B935",
"7+	c #A2EC60",
"8+	c #9BED60",
"9+	c #48B029",
"0+	c #E9EBE8",
"a+	c #ECFBEE",
"b+	c #1F9B00",
"c+	c #60C23C",
"d+	c #ADF47F",
"e+	c #529F4E",
"f+	c #45B11F",
"g+	c #41A118",
"h+	c #3C9F21",
"i+	c #7FC770",
"j+	c #B9DFAD",
"k+	c #5CBA35",
"l+	c #91E365",
"m+	c #5DB22E",
"n+	c #90E255",
"o+	c #83D95A",
"p+	c #54B22C",
"q+	c #95E75A",
"r+	c #75D043",
"s+	c #ADF06D",
"t+	c #7BD648",
"u+	c #6FC83B",
"v+	c #A9D3BB",
"w+	c #469743",
"x+	c #B8E2D6",
"y+	c #85BD8F",
"z+	c #5BA960",
". + + + + + + + + + + + + + + + + + + + + + + + + + + + + + + + . . . . . . . . . . . . . . . . ",
"@ @ @ @ @ @ @ @ @ # @ $ @ $ @ $ @ $ @ $ @ # # @ # @ @ @ @ @ @ @ @ @ @ @ @ @ @ @ @ @ @ @ @ @ @ @ ",
"+ + % & * = - - $ = # - # - # - # - # $ $ $ $ $ = - - = * % % + + . . . . . . . . . . . . . . . ",
"@ - ; * = - - > > , , ' , , , , , ) , ' ' ' ' ' ' ' # $ - $ ; * ; ; ; ; ; ; ; ; ; ; ; ; ; ; ; @ ",
"! ~ # > > ) ) { ] ] ^ ^ ] ^ ] ^ / ^ ^ ^ ] ] / ^ { ] , $ > > = # * ~ ! ! ! ( ( ( ( ( ( ( ( ( . . ",
"= - > ) { / / _ ^ : _ < [ < [ } | } : : : : } : < _ ^ ^ { ) $ = # ; & + . . . . . . . . . . ; @ ",
"- > , ^ ^ < | : 1 [ 2 2 2 2 3 3 4 3 3 5 5 4 4 3 3 2 | < / ] , > - ; * ; ; ; ; ; ; ; ; ; ; ( . . ",
"# ) / ^ | 1 3 6 7 8 9 0 9 0 a a a a a 0 9 b b a 9 9 9 a b c d ] ' # @ ~ ! ! ! ! ! ! ! ! ! . ; @ ",
", { < : e 5 7 f g / h h i i h i h h h h h h h i j j k l ! _ m b n > = ; & . . . . . . . ; ( . . ",
"{ _ } 3 4 o p q r r i s r t t u u t t t t v t u s i j k l . . _ p _ $ # ; ; ; ; ; ; ; ; ! . ; @ ",
"] < 2 w x y z t t u h t h i r t A B C u t u D E u h h B i . . ; F G = # ! ! ( ( ( ( ( . ; ( . . ",
"] | 4 H n I A r u t h h u E J K L M 9 N O u u O v t h i l l ! ! { c - - ; ; . . . . . ; ! . ; @ ",
"_ 1 w P Q b B t r s j h i R S T 8 u a U J J D D v v E r i l V ; # f # # # @ @ @ @ @ ( . ; ( . . ",
"< 3 w P W 0 X r j h Y i C c T Z 0 J I ` D D D D u t r j j Y . . - b $ = + + . . . . . ; ! . ; @ ",
"< 4  .n ..a X h i s j Y d +.@.#.b $.T %.v v D J O u t t i l l ! &.0 ' $ ; ; ; ; ; @ ( . ; ( . . ",
"[ e x Q *.a X j j l k k d L #.Z 9 q =.-.D u D D u v s j i k ( ; # I $ # # % ! ( . . . ; ! . ; @ ",
": 5 6 Q m a V j i k j l *.L #.c T ;.J D J J D J u J s h i k ( &.>.,.'.>.).+ !.( ! ; ! . ; ( . . ",
"| 4  .~.G b X h j j k B F +.#.8 {.D v D D D v D J u D h i V ].^./.(._.^.^.'.~ ; ; ! . ; ! . ; @ ",
"1 H :.Q *.a X h l l l h x T @.0 N D v D D D D D J t u h !.<./.[.}.}.|.1.[.2.<.~ . ; Y ! ; ( . . ",
"1 e P ..3.a X i j h j i -.8 @.c 4.D D D D D v D u u h t 2.<.5.}.}.6.6.7.7.5.2.2.! @ @ ; ! . ; @ ",
": 5 P ~.3.b X t i i j i &.0 8.9.c D D J D D D J O v t 0./.a.b.|.6.c.c.6.7.d.5.^.'.. . . ; ( . . ",
"[ 4 6 Q 3.a B i j Y i Y h c #.@.I ` D D D D v D D t j /.e.f.1.g.h.J J 6.7.d.f.i.j.!.! ; ! . ; @ ",
"1 4 :.Q k.a {.r i j i i Y G L @.+.l.v v D D D J J u m./.a.n.1.7.7.c.D 6.g.}.b.a./.m.! . ; ( . . ",
"| w P m 3.b $.t t i j k s [ 8 K y I {.D D J v D u J o._.p.n.b.1.|.7.6.h.d.b.f.q.r.s.. ; ! . ; @ ",
": 5 n Q k.b X r r i Y Y Y i I @.@.8 t.u O u D J u D ^.i.p.q.b.1.|.}.7.7.}.n.f.p.i.<.! . ; ( . . ",
"| H u.*.k.a $.v t h i i k i W S @.9.v.J D J D D J M /.w.x.p.n.b.d.}.d.d.b.f.q.p.y.j.z.; ! . ; @ ",
"| 4 P m 8.p X u t t j i i j z.0 7 K b C D u {.$.D A.^.w.x.x.q.n.b.1.b.b.n.n.p.B.w.j.).( ; ( . . ",
": 5  .m 8.b {.D u h j j j k i k.+.8.c C.X $.K 9.t M j.D.B.x.E.q.q.n.n.n.q.E.F.x.y.G.).; ! . ; @ ",
": 5 P Q 8.0 B u u r t i Y l j !.I v.=.H.a S N p I.h /.e.J.B.x.p.p.q.q.p.E.x.B.K.i.^.( . ; ( . . ",
"< 4  .Q G p $.D O v h h i j k l x +.8.7 #.8 I.L.0 ;.s.(.K.K.x.B.x.x.x.x.B.B.K.M._.s.. ; ! . ; @ ",
"< 3  .o 3.p {.D u v s u s Y k i l =.+.8.@.9.I M N.v.m.^.O.M.K.J.x.x.B.x.x.J.K.O./.m.! . ; ( . . ",
"_ 2 5 n m b $.v O u D u r i j j h R c P.S y T =.X I.B /.e.Q.M.R.J.M.K.J.J.K.S.e./.T.. ( !.. ; @ ",
"^ : 4 6 F I N u O v D t D t j j i r q G K L S U.X E t './.D.V.Q.S.W.S.Q.Q.Q.X./.,.( ! ; @ . . . ",
"/ < 2 H n P.4.J D u t s t h s i r i u s E v t D v r k j G.2.D.V.Q.Q.Q.S.O.D.^.<.+ ! ; ( . ! . @ ",
"{ _ | 3 H Q I / E u u h t r r h h i r r s s t h s j Y.Z.`.G.2. +[..+V..+ +<.G.`.++@+! . ; ! . ! ",
", { _ 1 e H @.9 F q r s i t B h h t h i i t h h Y.#+$+%+&+*+o./.^.s.<././.=+*+-+;+#+Z.>+. . . . ",
"> $ ^ _ } 3 4  .#.8 9 9 b b 0 b a 0 9 9 b b ,+Z.$+'+)+!+~+{+-.]+,.=+^+'.]+/+(+~+!+_+:+#+<+; @ ; ",
"- ' $ { _ _ : 1 2 3 e e 4 e 2 2 2 2 1 [ 3 [+$+%+_+}+|+1+~+2+N -.3+3+3+3+/+T.4+-+5+}+}+6+$+%+. ( ",
"* # ) ' { ] _ _ _ } : } : : } < _ } } < _ ++:+1+7+8+|+5+9+~+2+D X A T.0+a+4+b+c+d+|+}+8+_+#+&+; ",
"& = * # ) , , { ] ] ] ^ ] ] ] ^ ^ ^ ] ^ e+#+_+}+8+}+|+d+5+f+g+h+i+j+j+i+h+~+k+d+5+5+}+7+l+m+$+[+",
"; * * * = - > # ' , ' , , { , , ) ) , { $+h+1+n+}+}+}+5+d+d+o+9+~+g+-+~+p+o+d+5+5+}+}+8+q+)+;+<+",
"% ; ; ; ; # # = = = - - # = - - z.= $ [+#+6+1+l+l+q+}+}+|+d+d+d+d+l+l+d+d+d+5+5+|+}+8+q+l+n+'+$+",
"! % % ~ + % & % ; # ~ * & ~ ~ @ * % ; e+%+r+1+)+n+l+l+7+}+}+}+}+|+}+s+5+5+s+}+7+}+l+n+1+1+t+_+#+",
"; . ; ; ; ; ; ; ! + ; ; @ ; ; % ; ; + ++:+r+u+_+)+m+)+1+7+l+q+l+}+}+}+}+7+}+q+l+1+)+m+)+)+_+u+%+",
"@ ( ! ! ! ! ! ; ; ! ! + + ! + ! ! @ ; Z.'+u+u+u+!+$+m+_+)+1+n+1+1+o+1+1+1+l+1+o+)+m+$+k+u+u+u+:+",
". . ; ; ; ; ; ! ( ; ; ; @ ; @ + + + . ++%+-+g+9+'+#+m+r+r+_+_+)+o+t+o+_+r+)+r+r+u+m+#+g+9+h+-+Z.",
"@ . ! . ! ! + . ! . ! . + . @ ; ; @ ; v+w+$+#+%+$+$+#+$+$+#+#+:+:+-+-+:+-+;+;+#+$+$+$+#+#+$+#+w+",
". ! + ! . + ; @ + ! . . ! ; . ( ( . . ; ( ; + x+x+y+@+@+@+@+Y.w+w+w+w+w+w+w+z+@+@+@+@+v+x++ + + "};
