/* XPM */
static char *present16[] = {
"16 16 6 1 0 0",
"  c #000000",
"! c #11D616",
"# c #2AFC36",
"$ c #555555",
"% c #CCCCCC",
"& c None",
"&###!!#&&&&&&&&$",
"#!##!###&&&&&&&&",
"!!!!!!###&&&&&&$",
"##!!!!!!##&&&&&&",
"&#!!#&!!!##&&&&$",
"&&#!&&&!!!##&&&&",
"&&&&&&&&!!!##&&$",
"&&&&&&&&&!!###&&",
"&&&&&&&&&&!#####",
"&&&&&&&&&&&!####",
"&&&&&&&&&&&!##!!",
"&&&&&&&&&&!!!!!!",
"&&&&&&&&&&#!!!##",
"&&&&&&&&&&#!!!#%",
"&&&&&&&&&&&#!!#&",
"&&&&&&&&&&&&&#&&"
};
